<svg width="18" height="18" viewBox="0 0 18 18" fill="none" xmlns="http://www.w3.org/2000/svg">
    <path
        d="M17.3087 14.2748C17.3087 14.5748 17.242 14.8832 17.1003 15.1832C16.9587 15.4832 16.7753 15.7665 16.5337 16.0332C16.1253 16.4832 15.6753 16.8082 15.167 17.0165C14.667 17.2248 14.1253 17.3332 13.542 17.3332C12.692 17.3332 11.7837 17.1332 10.8253 16.7248C9.86699 16.3165 8.90866 15.7665 7.95866 15.0748C7.00033 14.3748 6.09199 13.5998 5.22533 12.7415C4.36699 11.8748 3.59199 10.9665 2.90033 10.0165C2.21699 9.0665 1.66699 8.1165 1.26699 7.17484C0.866992 6.22484 0.666992 5.3165 0.666992 4.44984C0.666992 3.88317 0.766992 3.3415 0.966992 2.8415C1.16699 2.33317 1.48366 1.8665 1.92533 1.44984C2.45866 0.924837 3.04199 0.666504 3.65866 0.666504C3.89199 0.666504 4.12533 0.716504 4.33366 0.816504C4.55033 0.916504 4.74199 1.0665 4.89199 1.28317L6.82533 4.00817C6.97533 4.2165 7.08366 4.40817 7.15866 4.5915C7.23366 4.7665 7.27533 4.9415 7.27533 5.09984C7.27533 5.29984 7.21699 5.49984 7.10033 5.6915C6.99199 5.88317 6.83366 6.08317 6.63366 6.28317L6.00033 6.9415C5.90866 7.03317 5.86699 7.1415 5.86699 7.27484C5.86699 7.3415 5.87533 7.39984 5.89199 7.4665C5.91699 7.53317 5.94199 7.58317 5.95866 7.63317C6.10866 7.90817 6.36699 8.2665 6.73366 8.69984C7.10866 9.13317 7.50866 9.57484 7.94199 10.0165C8.39199 10.4582 8.82533 10.8665 9.26699 11.2415C9.70033 11.6082 10.0587 11.8582 10.342 12.0082C10.3837 12.0248 10.4337 12.0498 10.492 12.0748C10.5587 12.0998 10.6253 12.1082 10.7003 12.1082C10.842 12.1082 10.9503 12.0582 11.042 11.9665L11.6753 11.3415C11.8837 11.1332 12.0837 10.9748 12.2753 10.8748C12.467 10.7582 12.6587 10.6998 12.867 10.6998C13.0253 10.6998 13.192 10.7332 13.3753 10.8082C13.5587 10.8832 13.7503 10.9915 13.9587 11.1332L16.717 13.0915C16.9337 13.2415 17.0837 13.4165 17.1753 13.6248C17.2587 13.8332 17.3087 14.0415 17.3087 14.2748Z"
        stroke="white" stroke-miterlimit="10" />
</svg>
    