<svg width="34" height="34" viewBox="0 0 34 34" fill="none" xmlns="http://www.w3.org/2000/svg">
    <path
        d="M28.783 5.21687C26.0484 2.46437 22.4391 0.752221 18.5774 0.375603C14.7157 -0.00101551 10.8436 0.981496 7.62868 3.15375C4.41375 5.32601 2.05743 8.55188 0.965982 12.2752C-0.12547 15.9986 0.116334 19.986 1.64971 23.5502C1.80953 23.8815 1.86196 24.2544 1.79971 24.6169L0.333042 31.6669C0.276536 31.9372 0.288074 32.2173 0.366621 32.482C0.445168 32.7467 0.588262 32.9878 0.783042 33.1835C0.942716 33.342 1.13283 33.4666 1.34193 33.5497C1.55103 33.6327 1.77479 33.6726 1.99971 33.6669H2.33304L9.46637 32.2335C9.82892 32.1899 10.1966 32.2416 10.533 32.3835C14.0972 33.9169 18.0847 34.1587 21.808 33.0673C25.5314 31.9758 28.7572 29.6195 30.9295 26.4046C33.1017 23.1896 34.0843 19.3175 33.7076 15.4558C33.331 11.5941 31.6189 7.98484 28.8664 5.2502L28.783 5.21687ZM10.333 18.6669C10.0034 18.6669 9.68117 18.5691 9.40709 18.386C9.13301 18.2028 8.91939 17.9425 8.79324 17.638C8.6671 17.3335 8.63409 16.9984 8.6984 16.675C8.76271 16.3517 8.92144 16.0548 9.15453 15.8217C9.38762 15.5886 9.68459 15.4299 10.0079 15.3656C10.3312 15.3012 10.6663 15.3343 10.9708 15.4604C11.2754 15.5865 11.5357 15.8002 11.7188 16.0742C11.902 16.3483 11.9997 16.6706 11.9997 17.0002C11.9997 17.4422 11.8241 17.8661 11.5116 18.1787C11.199 18.4913 10.7751 18.6669 10.333 18.6669ZM16.9997 18.6669C16.6701 18.6669 16.3478 18.5691 16.0738 18.386C15.7997 18.2028 15.5861 17.9425 15.4599 17.638C15.3338 17.3335 15.3008 16.9984 15.3651 16.675C15.4294 16.3517 15.5881 16.0548 15.8212 15.8217C16.0543 15.5886 16.3513 15.4299 16.6746 15.3656C16.9979 15.3012 17.333 15.3343 17.6375 15.4604C17.9421 15.5865 18.2024 15.8002 18.3855 16.0742C18.5686 16.3483 18.6664 16.6706 18.6664 17.0002C18.6664 17.4422 18.4908 17.8661 18.1782 18.1787C17.8657 18.4913 17.4417 18.6669 16.9997 18.6669ZM23.6664 18.6669C23.3367 18.6669 23.0145 18.5691 22.7404 18.386C22.4663 18.2028 22.2527 17.9425 22.1266 17.638C22.0004 17.3335 21.9674 16.9984 22.0317 16.675C22.096 16.3517 22.2548 16.0548 22.4879 15.8217C22.7209 15.5886 23.0179 15.4299 23.3412 15.3656C23.6645 15.3012 23.9996 15.3343 24.3042 15.4604C24.6087 15.5865 24.869 15.8002 25.0522 16.0742C25.2353 16.3483 25.333 16.6706 25.333 17.0002C25.333 17.4422 25.1574 17.8661 24.8449 18.1787C24.5323 18.4913 24.1084 18.6669 23.6664 18.6669Z"
        fill="#7A2A91" />
</svg>
    