<svg width="34" height="28" viewBox="0 0 34 28" fill="none" xmlns="http://www.w3.org/2000/svg">
    <path
        d="M30.333 0.666504H3.66634C1.83301 0.666504 0.349674 2.1665 0.349674 3.99984L0.333008 23.9998C0.333008 25.8332 1.83301 27.3332 3.66634 27.3332H30.333C32.1663 27.3332 33.6663 25.8332 33.6663 23.9998V3.99984C33.6663 2.1665 32.1663 0.666504 30.333 0.666504ZM29.6663 7.74984L17.883 15.1165C17.3497 15.4498 16.6497 15.4498 16.1163 15.1165L4.33301 7.74984C4.16589 7.65602 4.01954 7.52927 3.90282 7.37726C3.78611 7.22525 3.70145 7.05113 3.65397 6.86545C3.60649 6.67978 3.59718 6.4864 3.6266 6.29701C3.65602 6.10763 3.72357 5.92619 3.82514 5.76367C3.92672 5.60115 4.06021 5.46093 4.21755 5.3515C4.37489 5.24206 4.55279 5.16569 4.7405 5.127C4.92821 5.08831 5.12181 5.08811 5.3096 5.12642C5.49739 5.16472 5.67545 5.24073 5.83301 5.34984L16.9997 12.3332L28.1663 5.34984C28.3239 5.24073 28.502 5.16472 28.6898 5.12642C28.8775 5.08811 29.0711 5.08831 29.2589 5.127C29.4466 5.16569 29.6245 5.24206 29.7818 5.3515C29.9391 5.46093 30.0726 5.60115 30.1742 5.76367C30.2758 5.92619 30.3433 6.10763 30.3727 6.29701C30.4022 6.4864 30.3929 6.67978 30.3454 6.86545C30.2979 7.05113 30.2132 7.22525 30.0965 7.37726C29.9798 7.52927 29.8335 7.65602 29.6663 7.74984Z"
        fill="#7A2A91" />
</svg>
    