<svg width="22" height="18" viewBox="0 0 22 18" fill="none" xmlns="http://www.w3.org/2000/svg">
    <path
        d="M18.5 9.5C18.5 8.12 19.62 7 21 7V6C21 2 20 1 16 1H6C2 1 1 2 1 6V6.5C2.38 6.5 3.5 7.62 3.5 9C3.5 10.38 2.38 11.5 1 11.5V12C1 16 2 17 6 17H16C20 17 21 16 21 12C19.62 12 18.5 10.88 18.5 9.5Z"
        stroke="#7A2A91" stroke-width="1.5" stroke-linecap="round" stroke-linejoin="round" />
    <path d="M9 1L9 17" stroke="#7A2A91" stroke-width="1.5" stroke-linecap="round"
        stroke-linejoin="round" stroke-dasharray="5 5" />
</svg>
    