<svg width="20" height="20" viewBox="0 0 20 20" fill="none" xmlns="http://www.w3.org/2000/svg">
    <circle cx="10" cy="10" r="9.5" stroke="white" />
    <path
        d="M9.648 12.464C9.648 12.048 9.71733 11.6853 9.856 11.376C9.99467 11.0667 10.1653 10.7893 10.368 10.544C10.5813 10.2987 10.8107 10.0747 11.056 9.872C11.3013 9.65867 11.5307 9.45067 11.744 9.248C11.9573 9.03467 12.128 8.81067 12.256 8.576C12.3947 8.34133 12.464 8.06933 12.464 7.76C12.464 7.248 12.2613 6.832 11.856 6.512C11.4507 6.192 10.8907 6.032 10.176 6.032C9.536 6.032 8.98133 6.13867 8.512 6.352C8.04267 6.56533 7.64267 6.88 7.312 7.296L6.144 6.464C6.592 5.89867 7.16267 5.46133 7.856 5.152C8.54933 4.832 9.36 4.672 10.288 4.672C11.056 4.672 11.7227 4.78933 12.288 5.024C12.8533 5.248 13.2907 5.57333 13.6 6C13.92 6.416 14.08 6.92267 14.08 7.52C14.08 7.968 14.0107 8.352 13.872 8.672C13.7333 8.992 13.5573 9.27467 13.344 9.52C13.1307 9.76533 12.9013 9.99467 12.656 10.208C12.4213 10.4213 12.1973 10.6347 11.984 10.848C11.7707 11.0613 11.5947 11.296 11.456 11.552C11.3173 11.808 11.248 12.112 11.248 12.464H9.648ZM10.464 16.096C10.1653 16.096 9.91467 15.9947 9.712 15.792C9.52 15.5893 9.424 15.3493 9.424 15.072C9.424 14.7733 9.52 14.528 9.712 14.336C9.91467 14.144 10.1653 14.048 10.464 14.048C10.7627 14.048 11.008 14.144 11.2 14.336C11.392 14.528 11.488 14.7733 11.488 15.072C11.488 15.3493 11.392 15.5893 11.2 15.792C11.008 15.9947 10.7627 16.096 10.464 16.096Z"
        fill="white" />
</svg>
    