<svg width="25" height="25" viewBox="0 0 25 25" fill="none" xmlns="http://www.w3.org/2000/svg">
    <g clip-path="url(#clip0_18_158)">
        <path
            d="M12.5 25C19.4036 25 25 19.4036 25 12.5C25 5.59644 19.4036 0 12.5 0C5.59644 0 0 5.59644 0 12.5C0 19.4036 5.59644 25 12.5 25Z"
            fill="#3C5A9A" />
        <path
            d="M16.9866 4H13.93C12.116 4 10.0985 4.67811 10.0985 7.01522C10.1073 7.82956 10.0985 8.60945 10.0985 9.48717H8V12.4553H10.1634V21H14.1387V12.3989H16.7626L17 9.47885H14.0702C14.0702 9.47885 14.0768 8.17988 14.0702 7.80265C14.0702 6.87908 15.1514 6.93197 15.2164 6.93197C15.7309 6.93197 16.7313 6.9333 16.9881 6.93197V4H16.9866Z"
            fill="white" />
    </g>
    <defs>
        <clipPath id="clip0_18_158">
            <rect width="25" height="25" fill="white" />
        </clipPath>
    </defs>
</svg>
    