<svg width="64" height="64" viewBox="0 0 64 64" fill="none" xmlns="http://www.w3.org/2000/svg">
    <rect x="2" y="2" width="60" height="60" rx="30" fill="white" />
    <mask id="path-2-inside-1_15_62" fill="white">
        <path
            d="M64 32C64 27.7977 63.1723 23.6365 61.5641 19.7541C59.956 15.8717 57.5989 12.3441 54.6274 9.37258C51.6559 6.40111 48.1283 4.044 44.2459 2.43585C40.3634 0.827704 36.2023 -1.83688e-07 32 0V2.1996C35.9134 2.1996 39.7886 2.97041 43.4041 4.46802C47.0197 5.96563 50.3048 8.16071 53.0721 10.9279C55.8393 13.6952 58.0344 16.9803 59.532 20.5959C61.0296 24.2114 61.8004 28.0866 61.8004 32H64Z" />
    </mask>
    <path
        d="M64 32C64 27.7977 63.1723 23.6365 61.5641 19.7541C59.956 15.8717 57.5989 12.3441 54.6274 9.37258C51.6559 6.40111 48.1283 4.044 44.2459 2.43585C40.3634 0.827704 36.2023 -1.83688e-07 32 0V2.1996C35.9134 2.1996 39.7886 2.97041 43.4041 4.46802C47.0197 5.96563 50.3048 8.16071 53.0721 10.9279C55.8393 13.6952 58.0344 16.9803 59.532 20.5959C61.0296 24.2114 61.8004 28.0866 61.8004 32H64Z"
        stroke="#7A2A91" stroke-width="4" mask="url(#path-2-inside-1_15_62)" />
    <path
        d="M22 31C21.4477 31 21 31.4477 21 32C21 32.5523 21.4477 33 22 33V31ZM42.7071 32.7071C43.0976 32.3166 43.0976 31.6834 42.7071 31.2929L36.3431 24.9289C35.9526 24.5384 35.3195 24.5384 34.9289 24.9289C34.5384 25.3195 34.5384 25.9526 34.9289 26.3431L40.5858 32L34.9289 37.6569C34.5384 38.0474 34.5384 38.6805 34.9289 39.0711C35.3195 39.4616 35.9526 39.4616 36.3431 39.0711L42.7071 32.7071ZM22 33H42V31H22V33Z"
        fill="#7A2A91" />
</svg>
    