<svg width="25" height="25" viewBox="0 0 25 25" fill="none" xmlns="http://www.w3.org/2000/svg">
    <g clip-path="url(#clip0_18_150)">
        <path
            d="M24.9868 12.7338C24.9868 11.7095 24.9018 10.9621 24.7177 10.187H12.749V14.8099H19.7744C19.6328 15.9588 18.8679 17.6889 17.1682 18.8515L17.1444 19.0063L20.9286 21.8711L21.1908 21.8966C23.5987 19.7236 24.9868 16.5262 24.9868 12.7338Z"
            fill="#4285F4" />
        <path
            d="M12.7493 24.9142C16.1912 24.9142 19.0806 23.8069 21.1911 21.8969L17.1685 18.8517C16.0921 19.5853 14.6473 20.0974 12.7493 20.0974C9.37828 20.0974 6.51715 17.9244 5.49723 14.9209L5.34774 14.9333L1.41279 17.9092L1.36133 18.049C3.4576 22.1182 7.76351 24.9142 12.7493 24.9142Z"
            fill="#34A853" />
        <path
            d="M5.4966 14.9209C5.22749 14.1458 5.07174 13.3153 5.07174 12.4572C5.07174 11.599 5.22749 10.7685 5.48244 9.99343L5.47531 9.82835L1.49106 6.80469L1.3607 6.86528C0.496726 8.55392 0.000976562 10.4502 0.000976562 12.4572C0.000976562 14.4641 0.496726 16.3603 1.3607 18.049L5.4966 14.9209Z"
            fill="#FBBC05" />
        <path
            d="M12.7493 4.8167C15.143 4.8167 16.7577 5.8271 17.6784 6.67147L21.2761 3.23884C19.0665 1.23187 16.1911 0 12.7493 0C7.7635 0 3.4576 2.7959 1.36133 6.86517L5.48307 9.99332C6.51714 6.98979 9.37827 4.8167 12.7493 4.8167Z"
            fill="#EB4335" />
    </g>
    <defs>
        <clipPath id="clip0_18_150">
            <rect width="25" height="25" fill="white" />
        </clipPath>
    </defs>
</svg>
    