<svg width="18" height="18" viewBox="0 0 18 18" fill="none" xmlns="http://www.w3.org/2000/svg">
    <path d="M12.7197 4.62744C14.2197 5.66994 15.2547 7.32744 15.4647 9.23994" stroke="#9EA1AB"
        stroke-linecap="round" stroke-linejoin="round" />
    <path d="M2.61719 9.27754C2.81219 7.37254 3.83219 5.71504 5.31719 4.66504" stroke="#9EA1AB"
        stroke-linecap="round" stroke-linejoin="round" />
    <path
        d="M6.14258 15.7051C7.01258 16.1476 8.00258 16.3951 9.04508 16.3951C10.0501 16.3951 10.9951 16.1701 11.8426 15.7576"
        stroke="#9EA1AB" stroke-linecap="round" stroke-linejoin="round" />
    <path
        d="M9.04496 5.77498C10.1965 5.77498 11.13 4.84149 11.13 3.68998C11.13 2.53847 10.1965 1.60498 9.04496 1.60498C7.89345 1.60498 6.95996 2.53847 6.95996 3.68998C6.95996 4.84149 7.89345 5.77498 9.04496 5.77498Z"
        stroke="#9EA1AB" stroke-linecap="round" stroke-linejoin="round" />
    <path
        d="M3.62211 14.94C4.77362 14.94 5.70711 14.0065 5.70711 12.855C5.70711 11.7035 4.77362 10.77 3.62211 10.77C2.4706 10.77 1.53711 11.7035 1.53711 12.855C1.53711 14.0065 2.4706 14.94 3.62211 14.94Z"
        stroke="#9EA1AB" stroke-linecap="round" stroke-linejoin="round" />
    <path
        d="M14.378 14.94C15.5295 14.94 16.463 14.0065 16.463 12.855C16.463 11.7035 15.5295 10.77 14.378 10.77C13.2265 10.77 12.293 11.7035 12.293 12.855C12.293 14.0065 13.2265 14.94 14.378 14.94Z"
        stroke="#9EA1AB" stroke-linecap="round" stroke-linejoin="round" />
</svg>
    