<svg width="24" height="24" viewBox="0 0 24 24" fill="none" xmlns="http://www.w3.org/2000/svg">
    <g opacity="0.75">
        <path opacity="0.4"
            d="M22 15.9402C22 18.7302 19.76 20.9902 16.97 21.0002H16.96H7.05C4.27 21.0002 2 18.7502 2 15.9602V15.9502C2 15.9502 2.006 11.5242 2.014 9.29824C2.015 8.88024 2.495 8.64624 2.822 8.90624C5.198 10.7912 9.447 14.2282 9.5 14.2732C10.21 14.8422 11.11 15.1632 12.03 15.1632C12.95 15.1632 13.85 14.8422 14.56 14.2622C14.613 14.2272 18.767 10.8932 21.179 8.97724C21.507 8.71624 21.989 8.95024 21.99 9.36724C22 11.5762 22 15.9402 22 15.9402Z"
            fill="#7A2A91" />
        <path
            d="M21.4759 5.67351C20.6099 4.04151 18.9059 2.99951 17.0299 2.99951H7.04988C5.17388 2.99951 3.46988 4.04151 2.60388 5.67351C2.40988 6.03851 2.50188 6.49351 2.82488 6.75151L10.2499 12.6905C10.7699 13.1105 11.3999 13.3195 12.0299 13.3195C12.0339 13.3195 12.0369 13.3195 12.0399 13.3195C12.0429 13.3195 12.0469 13.3195 12.0499 13.3195C12.6799 13.3195 13.3099 13.1105 13.8299 12.6905L21.2549 6.75151C21.5779 6.49351 21.6699 6.03851 21.4759 5.67351Z"
            fill="#7A2A91" />
    </g>
</svg>
    