<svg width="20" height="20" viewBox="0 0 20 20" fill="none" xmlns="http://www.w3.org/2000/svg">
    <path
        d="M10.0999 10.6502C10.0416 10.6419 9.9666 10.6419 9.89994 10.6502C8.43327 10.6002 7.2666 9.40023 7.2666 7.92523C7.2666 6.41689 8.48327 5.19189 9.99993 5.19189C11.5083 5.19189 12.7333 6.41689 12.7333 7.92523C12.7249 9.40023 11.5666 10.6002 10.0999 10.6502Z"
        stroke="white" stroke-linecap="round" stroke-linejoin="round" />
    <path
        d="M15.6171 16.1498C14.1338 17.5081 12.1671 18.3331 10.0005 18.3331C7.83379 18.3331 5.86712 17.5081 4.38379 16.1498C4.46712 15.3665 4.96712 14.5998 5.85879 13.9998C8.14212 12.4831 11.8755 12.4831 14.1421 13.9998C15.0338 14.5998 15.5338 15.3665 15.6171 16.1498Z"
        stroke="white" stroke-linecap="round" stroke-linejoin="round" />
    <path
        d="M10.0003 18.3332C14.6027 18.3332 18.3337 14.6022 18.3337 9.99984C18.3337 5.39746 14.6027 1.6665 10.0003 1.6665C5.39795 1.6665 1.66699 5.39746 1.66699 9.99984C1.66699 14.6022 5.39795 18.3332 10.0003 18.3332Z"
        stroke="white" stroke-linecap="round" stroke-linejoin="round" />
</svg>
    