<svg width="20" height="20" viewBox="0 0 20 20" fill="none" xmlns="http://www.w3.org/2000/svg">
    <path
        d="M14.167 18.3335H5.83366C2.50033 18.3335 1.66699 17.5002 1.66699 14.1668V12.5002C1.66699 9.16683 2.50033 8.3335 5.83366 8.3335H14.167C17.5003 8.3335 18.3337 9.16683 18.3337 12.5002V14.1668C18.3337 17.5002 17.5003 18.3335 14.167 18.3335Z"
        stroke="white" stroke-linecap="round" stroke-linejoin="round" />
    <path
        d="M5 8.33317V6.6665C5 3.90817 5.83333 1.6665 10 1.6665C13.75 1.6665 15 3.33317 15 5.83317"
        stroke="white" stroke-linecap="round" stroke-linejoin="round" />
    <path
        d="M10.0003 15.4167C11.1509 15.4167 12.0837 14.4839 12.0837 13.3333C12.0837 12.1827 11.1509 11.25 10.0003 11.25C8.84973 11.25 7.91699 12.1827 7.91699 13.3333C7.91699 14.4839 8.84973 15.4167 10.0003 15.4167Z"
        stroke="white" stroke-linecap="round" stroke-linejoin="round" />
</svg>
    